<mxfile host="app.diagrams.net" agent="Mozilla/5.0 (Macintosh; Intel Mac OS X 10_15_7) AppleWebKit/537.36 (KHTML, like Gecko) Chrome/130.0.0.0 Safari/537.36" version="24.8.4">
  <diagram name="Page-1" id="UlBRfQhJDxwSDo63T5Jt">
    <mxGraphModel dx="1592" dy="969" grid="1" gridSize="10" guides="1" tooltips="1" connect="1" arrows="1" fold="1" page="1" pageScale="1" pageWidth="827" pageHeight="1169" math="0" shadow="0">
      <root>
        <mxCell id="0" />
        <mxCell id="1" parent="0" />
        <mxCell id="pW-LC5tRGmuxM2y8gRP--2" value="" style="shape=flexArrow;endArrow=classic;html=1;rounded=0;exitX=1;exitY=0.5;exitDx=0;exitDy=0;entryX=0;entryY=0.5;entryDx=0;entryDy=0;fillColor=#f5f5f5;strokeColor=#666666;" parent="1" source="pW-LC5tRGmuxM2y8gRP--3" target="pW-LC5tRGmuxM2y8gRP--6" edge="1">
          <mxGeometry width="50" height="50" relative="1" as="geometry">
            <mxPoint x="510" y="260" as="sourcePoint" />
            <mxPoint x="600" y="260" as="targetPoint" />
          </mxGeometry>
        </mxCell>
        <mxCell id="pW-LC5tRGmuxM2y8gRP--3" value="" style="rounded=1;whiteSpace=wrap;html=1;fillColor=#dae8fc;strokeColor=#6c8ebf;" parent="1" vertex="1">
          <mxGeometry x="42" y="130" width="460" height="100" as="geometry" />
        </mxCell>
        <mxCell id="pW-LC5tRGmuxM2y8gRP--5" value="&lt;font style=&quot;font-size: 15px;&quot;&gt;Sentence&amp;nbsp;&lt;/font&gt;&lt;div style=&quot;font-size: 15px;&quot;&gt;&lt;font style=&quot;font-size: 15px;&quot;&gt;(for example [&#39;Narendra&#39;, &#39;Modi&#39;, &#39;is&#39;, &#39;Prime&#39;, &#39;Minister&#39;, &#39;of&#39;, &#39;India&#39;])&lt;/font&gt;&lt;/div&gt;" style="text;html=1;align=center;verticalAlign=middle;whiteSpace=wrap;rounded=0;" parent="1" vertex="1">
          <mxGeometry x="34" y="140" width="476" height="70" as="geometry" />
        </mxCell>
        <mxCell id="pW-LC5tRGmuxM2y8gRP--6" value="" style="rounded=1;whiteSpace=wrap;html=1;fillColor=#f8cecc;strokeColor=#b85450;" parent="1" vertex="1">
          <mxGeometry x="590" y="130" width="300" height="100" as="geometry" />
        </mxCell>
        <mxCell id="pW-LC5tRGmuxM2y8gRP--7" value="&lt;font style=&quot;font-size: 15px;&quot;&gt;Our Model&lt;/font&gt;" style="text;html=1;align=center;verticalAlign=middle;whiteSpace=wrap;rounded=0;" parent="1" vertex="1">
          <mxGeometry x="690" y="165" width="100" height="30" as="geometry" />
        </mxCell>
        <mxCell id="pW-LC5tRGmuxM2y8gRP--8" value="" style="shape=flexArrow;endArrow=classic;html=1;rounded=0;exitX=1;exitY=0.5;exitDx=0;exitDy=0;entryX=0;entryY=0.5;entryDx=0;entryDy=0;fillColor=#f5f5f5;strokeColor=#666666;" parent="1" source="pW-LC5tRGmuxM2y8gRP--6" target="pW-LC5tRGmuxM2y8gRP--9" edge="1">
          <mxGeometry width="50" height="50" relative="1" as="geometry">
            <mxPoint x="860" y="90" as="sourcePoint" />
            <mxPoint x="990" y="180" as="targetPoint" />
          </mxGeometry>
        </mxCell>
        <mxCell id="pW-LC5tRGmuxM2y8gRP--9" value="" style="rounded=1;whiteSpace=wrap;html=1;fillColor=#d5e8d4;strokeColor=#82b366;" parent="1" vertex="1">
          <mxGeometry x="980" y="130" width="500" height="100" as="geometry" />
        </mxCell>
        <mxCell id="pW-LC5tRGmuxM2y8gRP--10" value="&lt;font style=&quot;font-size: 16px;&quot;&gt;Output&lt;/font&gt;&lt;div style=&quot;font-size: 16px;&quot;&gt;&lt;font style=&quot;font-size: 16px;&quot;&gt;[Person-Politician, Person-Politician, O, O, O, O, Location-Country]&lt;/font&gt;&lt;/div&gt;" style="text;html=1;align=center;verticalAlign=middle;whiteSpace=wrap;rounded=0;" parent="1" vertex="1">
          <mxGeometry x="950" y="160" width="560" height="30" as="geometry" />
        </mxCell>
      </root>
    </mxGraphModel>
  </diagram>
</mxfile>
